<?xml version="1.0" encoding="utf-8"?>
<!-- Generator: Adobe Illustrator 23.1.0, SVG Export Plug-In . SVG Version: 6.00 Build 0)  -->
<svg version="1.1" id="Слой_1" xmlns="http://www.w3.org/2000/svg" xmlns:xlink="http://www.w3.org/1999/xlink" x="0px" y="0px"
	 viewBox="0 0 90 30" style="enable-background:new 0 0 90 30;" xml:space="preserve">
<style type="text/css">
	.st0{fill:#E7CE89;}
	.st1{fill:none;stroke:#FFFFFF;stroke-width:4;stroke-miterlimit:10;}
</style>
<g id="XMLID_1_">
	<g>
		<polygon class="st0" points="89.9,15 73.1,28.1 73,28 16.9,27.9 16.9,27.9 0.1,14.9 16.9,2 16.9,2 73.1,2.1 73.2,2 		"/>
	</g>
	<g>
		<polyline class="st1" points="0,15 0.1,14.9 16.9,2 17.9,1.1 		"/>
		<polyline class="st1" points="0,14.9 0.1,14.9 16.9,27.9 18.1,28.9 		"/>
		<polyline class="st1" points="90,15 89.9,15 73.1,28.1 72,28.9 		"/>
		<polyline class="st1" points="90,15.1 89.9,15 73.2,2 72,1.1 		"/>
		<line class="st1" x1="16.9" y1="2" x2="73.1" y2="2.1"/>
		<line class="st1" x1="16.9" y1="27.9" x2="73" y2="28"/>
	</g>
</g>
</svg>
